# xmcd CD database file
# Generated: Don Nov 21 08:39:42 2002 by KSCD
# 
# Track frame offsets:
#       150
#       16091
#       29131
#       45260
#       55576
#       72530
#       86409
#       100250
#       112743
#       129548
#       141626
#       155129
#
# Disc length: 2209 seconds
#
# Revision: 1
# Processed by: cddbd v1.4PL0 Copyright (c) Steve Scherf et al.
# Submitted via: Kscd 1.3.3
#
DISCID=a0089f0c
DTITLE=The Tennessee Gospel Society - Gospel Christmas - CD 1
DYEAR=1900
DGENRE=
TTITLE0=Glory To That Newborn King
TTITLE1=Go Tell It On The Mountain
TTITLE2=Sweet Little Jesus Boy
TTITLE3=He Is King Of Kings
TTITLE4=Wasn't That A Mighty Day
TTITLE5=Jesus Was Born To Mary
TTITLE6=Swing Low, Sweet Chariot
TTITLE7=Rise Up Shepherd An' Foller
TTITLE8=This Little Light Of Mine (Let It Shine)
TTITLE9=Good News
TTITLE10=Morning Stars
TTITLE11=Joy To The World
EXTD=
EXTT0=
EXTT1=
EXTT2=
EXTT3=
EXTT4=
EXTT5=
EXTT6=
EXTT7=
EXTT8=
EXTT9=
EXTT10=
EXTT11=
PLAYORDER=
